PathFileType	4	(X/Y/Z)	RBDS019static.trc
DataRate	CameraRate	NumFrames	NumMarkers	Units	OrigDataRate	OrigDataStartFrame	OrigNumFrames
150.000000	150.000000	4	48	mm	150.000000	18	150
Frame#	Time	L.Ankle			L.Ankle.Medial			L.ASIS			L.GTR			L.Heel.Bottom			L.Heel.Lateral			L.Heel.Top			L.HF			L.Iliac.Crest			L.Knee			L.Knee.Medial			L.MT1			L.MT2			L.MT5			L.PSIS			L.Shank.Bottom.Lateral			L.Shank.Bottom.Medial			L.Shank.Top.Lateral			L.Shank.Top.Medial			L.Thigh.Bottom.Lateral			L.Thigh.Bottom.Medial			L.Thigh.Top.Lateral			L.Thigh.Top.Medial			L.TT			R.Ankle			R.Ankle.Medial			R.ASIS			R.GTR			R.Heel.Bottom			R.Heel.Lateral			R.Heel.Top			R.HF			R.Iliac.Crest			R.Knee			R.Knee.Medial			R.MT1			R.MT2			R.MT5			R.PSIS			R.Shank.Bottom.Lateral			R.Shank.Bottom.Medial			R.Shank.Top.Lateral			R.Shank.Top.Medial			R.Thigh.Bottom.Lateral			R.Thigh.Bottom.Medial			R.Thigh.Top.Lateral			R.Thigh.Top.Medial			R.TT			
		X1	Y1	Z1	X2	Y2	Z2	X3	Y3	Z3	X4	Y4	Z4	X5	Y5	Z5	X6	Y6	Z6	X7	Y7	Z7	X8	Y8	Z8	X9	Y9	Z9	X10	Y10	Z10	X11	Y11	Z11	X12	Y12	Z12	X13	Y13	Z13	X14	Y14	Z14	X15	Y15	Z15	X16	Y16	Z16	X17	Y17	Z17	X18	Y18	Z18	X19	Y19	Z19	X20	Y20	Z20	X21	Y21	Z21	X22	Y22	Z22	X23	Y23	Z23	X24	Y24	Z24	X25	Y25	Z25	X26	Y26	Z26	X27	Y27	Z27	X28	Y28	Z28	X29	Y29	Z29	X30	Y30	Z30	X31	Y31	Z31	X32	Y32	Z32	X33	Y33	Z33	X34	Y34	Z34	X35	Y35	Z35	X36	Y36	Z36	X37	Y37	Z37	X38	Y38	Z38	X39	Y39	Z39	X40	Y40	Z40	X41	Y41	Z41	X42	Y42	Z42	X43	Y43	Z43	X44	Y44	Z44	X45	Y45	Z45	X46	Y46	Z46	X47	Y47	Z47	X48	Y48	Z48	

19	0.12	710.45654296875	94.59201049804688	1046.751342773438	717.8682861328125	101.8848495483398	1126.831298828125	832.2017822265625	971.1753540039063	1114.462646484375	768.8790893554688	891.0158081054688	1052.228149414063	635.2366333007813	36.40380477905273	1081.841796875	666.8245239257813	56.41757965087891	1040.614868164063	643.7025146484375	84.31668090820313	1083.081787109375	720.305908203125	441.9756774902344	1037.048583984375	772.8076171875	1025.005737304688	1073.5078125	724.9195556640625	500.5579223632813	1043.89599609375	706.676025390625	481.0480651855469	1166.265747070313	836.6859741210938	54.20001220703125	1127.6318359375	845.8215942382813	67.43867492675781	1084.489868164063	812.5521240234375	48.32334136962891	1020.991882324219	657.6002807617188	994.7691650390625	1167.837280273438	699.864501953125	176.9206695556641	1037.243774414063	660.9990844726563	172.5355682373047	1070.0869140625	687.0006103515625	255.9676361083984	1026.452270507813	648.4259033203125	255.8138885498047	1062.524536132813	725.3624877929688	613.2687377929688	1036.89892578125	662.5908203125	620.981689453125	1074.61669921875	735.6752319335938	722.4798583984375	1034.107299804688	676.3893432617188	729.4610595703125	1071.249877929688	769.629150390625	426.03271484375	1090.469970703125	706.2931518554688	98.82251739501953	1406.882080078125	723.6962280273438	109.3462753295898	1327.615844726563	816.3731689453125	972.7411499023438	1350.85791015625	744.845947265625	898.4271240234375	1401.916748046875	634.5669555664063	40.01654434204102	1368.189208984375	661.9139404296875	57.31191635131836	1407.340087890625	644.1345825195313	84.96504211425781	1365.9306640625	715.569580078125	451.2908630371094	1404.878051757813	759.4291381835938	1036.416748046875	1368.430419921875	718.7478637695313	511.7099609375	1397.768432617188	722.6539916992188	485.0181274414063	1274.776977539063	832.3880004882813	58.73432159423828	1328.442749023438	846.602783203125	69.88565826416016	1370.9833984375	805.7109375	47.6099853515625	1434.543090820313	654.443359375	1003.954345703125	1269.478393554688	698.2549438476563	170.9891815185547	1411.997192382813	659.2650756835938	168.7336730957031	1372.264038085938	684.0460205078125	250.5865325927734	1420.190185546875	647.5366821289063	247.8913116455078	1380.06396484375	707.622314453125	607.3426513671875	1405.467163085938	656.8701171875	610.4881591796875	1354.835205078125	709.1974487304688	717.7141723632813	1409.901977539063	658.3524169921875	720.2474975585938	1364.244995117188	768.7615966796875	429.7572021484375	1352.973510742188	
20	0.1266666666666667	710.4559326171875	94.58243560791016	1046.757568359375	717.8577270507813	101.8855514526367	1126.832641601563	832.1813354492188	971.1573486328125	1114.470458984375	768.8848266601563	891.0288696289063	1052.221435546875	635.2440795898438	36.40106582641602	1081.845458984375	666.8284912109375	56.42119216918945	1040.606201171875	643.7034301757813	84.31833648681641	1083.093383789063	720.2999877929688	441.9805908203125	1037.04931640625	772.8079833984375	1024.997924804688	1073.509521484375	724.91259765625	500.5603332519531	1043.890991210938	706.6652221679688	481.0382385253906	1166.258544921875	836.6809692382813	54.2123908996582	1127.638061523438	845.8118896484375	67.44015502929688	1084.484252929688	812.5297241210938	48.33697128295898	1020.977355957031	657.5901489257813	994.7838745117188	1167.81494140625	699.8604125976563	176.9186401367188	1037.243408203125	661.0009155273438	172.5368957519531	1070.088134765625	687.0015258789063	255.9709777832031	1026.451782226563	648.4210815429688	255.8148651123047	1062.523681640625	725.3422241210938	613.2666015625	1036.891845703125	662.5770874023438	620.9771728515625	1074.6015625	735.6674194335938	722.4733276367188	1034.103759765625	676.3746948242188	729.462158203125	1071.240844726563	769.626953125	426.0313415527344	1090.463989257813	706.3134155273438	99.00707244873047	1407.065307617188	723.7014770507813	109.3510360717773	1327.615112304688	816.334228515625	972.7462768554688	1350.856567382813	744.8020629882813	898.4249877929688	1401.904418945313	634.5690307617188	40.01540374755859	1368.196044921875	661.9127197265625	57.31357574462891	1407.346801757813	644.1376342773438	84.96344757080078	1365.930908203125	715.5465087890625	451.2979125976563	1404.87890625	759.390869140625	1036.40576171875	1368.429443359375	718.7208251953125	511.7042541503906	1397.755859375	722.6397094726563	485.0173950195313	1274.771728515625	832.3781127929688	58.74112319946289	1328.435791015625	846.6129760742188	69.89092254638672	1370.985473632813	805.7073974609375	47.61184692382813	1434.545654296875	654.4207763671875	1003.957824707031	1269.459106445313	698.2354125976563	170.9858856201172	1411.991455078125	659.2573852539063	168.7278900146484	1372.239013671875	684.036865234375	250.5880737304688	1420.182495117188	647.5230102539063	247.8898162841797	1380.061889648438	707.5932006835938	607.3411254882813	1405.464721679688	656.8436889648438	610.4905395507813	1354.826293945313	709.1519775390625	717.7085571289063	1409.891479492188	658.3222045898438	720.2427368164063	1364.236938476563	768.7352905273438	429.7590026855469	1352.963745117188	
21	0.1333333333333333	710.445068359375	94.58548736572266	1046.76025390625	717.858642578125	101.8952331542969	1126.828002929688	832.1844482421875	971.164794921875	1114.465454101563	768.8775024414063	891.0311889648438	1052.218017578125	635.2347412109375	36.40184020996094	1081.838500976563	666.8239135742188	56.42322540283203	1040.611450195313	643.6968383789063	84.32334899902344	1083.082153320313	720.3018798828125	441.9779663085938	1037.05029296875	772.8230590820313	1025.003295898438	1073.502197265625	724.9181518554688	500.5595397949219	1043.889282226563	706.6399536132813	481.0458374023438	1166.26318359375	836.6876220703125	54.21900177001953	1127.638916015625	845.8218383789063	67.44190979003906	1084.483154296875	812.5440673828125	48.32823944091797	1020.98876953125	657.5826416015625	994.7836303710938	1167.800415039063	699.8697509765625	176.9194946289063	1037.246215820313	660.998046875	172.5339660644531	1070.093872070313	686.9998168945313	255.9686431884766	1026.451416015625	648.421142578125	255.8135528564453	1062.52734375	725.3427124023438	613.2625732421875	1036.88525390625	662.575927734375	620.9757080078125	1074.60400390625	735.6621704101563	722.4725341796875	1034.099975585938	676.3671875	729.4554443359375	1071.222900390625	769.6199340820313	426.0327758789063	1090.469116210938	706.3089599609375	99.00408172607422	1407.058715820313	723.702880859375	109.3505554199219	1327.617431640625	816.3009033203125	972.7431030273438	1350.8583984375	744.7620849609375	898.4266967773438	1401.899169921875	634.5733642578125	40.01720809936523	1368.184326171875	661.9094848632813	57.31154251098633	1407.337158203125	644.1295166015625	84.9642333984375	1365.926635742188	715.5296630859375	451.2930603027344	1404.863891601563	759.3394775390625	1036.403076171875	1368.4296875	718.7042236328125	511.7098388671875	1397.749633789063	722.6304931640625	485.0252990722656	1274.761840820313	832.3922119140625	58.73441696166992	1328.44091796875	846.5926513671875	69.89533996582031	1370.977416992188	805.7049560546875	47.61322402954102	1434.5458984375	654.3998413085938	1003.966430664063	1269.451171875	698.2330322265625	170.9835510253906	1411.986450195313	659.2488403320313	168.7218933105469	1372.231811523438	684.0278930664063	250.5924530029297	1420.179077148438	647.51611328125	247.8883361816406	1380.054931640625	707.5582275390625	607.33251953125	1405.457641601563	656.8156127929688	610.4819946289063	1354.81689453125	709.1163940429688	717.7033081054688	1409.879028320313	658.284423828125	720.2367553710938	1364.222900390625	768.7225341796875	429.7704162597656	1352.970825195313	
22	0.14	710.4342651367188	94.5849609375	1046.75048828125	717.862060546875	101.8952178955078	1126.822387695313	832.1845092773438	971.1600341796875	1114.47216796875	768.87939453125	891.0260009765625	1052.209716796875	635.2433471679688	36.4022216796875	1081.839965820313	666.8246459960938	56.42393493652344	1040.613891601563	643.6962280273438	84.32096862792969	1083.084594726563	720.291748046875	441.9714050292969	1037.044189453125	772.8257446289063	1025.010009765625	1073.507080078125	724.9108276367188	500.5628356933594	1043.894409179688	706.6383666992188	481.0445251464844	1166.252685546875	836.6751708984375	54.21120834350586	1127.627685546875	845.8115844726563	67.44149017333984	1084.480712890625	812.54736328125	48.33674621582031	1020.981140136719	657.5747680664063	994.7872924804688	1167.784057617188	699.8667602539063	176.9152984619141	1037.239013671875	661.0049438476563	172.5315246582031	1070.092529296875	686.9915771484375	255.9618225097656	1026.449829101563	648.4202880859375	255.8213958740234	1062.522827148438	725.34765625	613.2537841796875	1036.883422851563	662.5753173828125	620.9699096679688	1074.589477539063	735.6593017578125	722.47021484375	1034.088623046875	676.3626098632813	729.4567260742188	1071.220458984375	769.6126708984375	426.02099609375	1090.468383789063	706.3064575195313	99.00334930419922	1407.0732421875	723.6949462890625	109.3563079833984	1327.605590820313	816.2643432617188	972.746337890625	1350.855712890625	744.7130126953125	898.4298706054688	1401.895141601563	634.567138671875	40.01142120361328	1368.17919921875	661.9102783203125	57.31292724609375	1407.345092773438	644.1404418945313	84.95549011230469	1365.922729492188	715.5082397460938	451.2892456054688	1404.864135742188	759.3032836914063	1036.392822265625	1368.424682617188	718.6747436523438	511.7128295898438	1397.748657226563	722.6188354492188	485.0144958496094	1274.754150390625	832.3756103515625	58.7354736328125	1328.4443359375	846.5955200195313	69.89904022216797	1370.973999023438	805.702392578125	47.61174392700195	1434.546508789063	654.3726806640625	1003.96923828125	1269.425170898438	698.22509765625	170.9783630371094	1411.987548828125	659.2471313476563	168.7205200195313	1372.228515625	684.010498046875	250.5830993652344	1420.169799804688	647.5117797851563	247.8838348388672	1380.058227539063	707.5216674804688	607.3414916992188	1405.440307617188	656.78125	610.4854125976563	1354.8046875	709.0744018554688	717.7056274414063	1409.876098632813	658.2455444335938	720.2274169921875	1364.211181640625	768.7003784179688	429.7693481445313	1352.965698242188	
